<svg width="20" height="20" viewBox="0 0 20 20" fill="none" xmlns="http://www.w3.org/2000/svg">
<path d="M4.36315 14.6998C5.14232 14.104 6.01315 13.634 6.97565 13.29C7.93815 12.9465 8.94648 12.7748 10.0007 12.7748C11.0548 12.7748 12.0632 12.9465 13.0257 13.29C13.9882 13.634 14.859 14.104 15.6382 14.6998C16.1729 14.0734 16.5893 13.363 16.8876 12.5686C17.1852 11.7741 17.334 10.9262 17.334 10.0248C17.334 7.99288 16.6199 6.26252 15.1917 4.83374C13.763 3.40557 12.0326 2.69149 10.0007 2.69149C7.96871 2.69149 6.23865 3.40557 4.81048 4.83374C3.38171 6.26252 2.66732 7.99288 2.66732 10.0248C2.66732 10.9262 2.81643 11.7741 3.11465 12.5686C3.41226 13.363 3.82843 14.0734 4.36315 14.6998ZM10.0007 10.9415C9.09926 10.9415 8.33904 10.6323 7.71998 10.0138C7.10154 9.39476 6.79232 8.63454 6.79232 7.73315C6.79232 6.83177 7.10154 6.07154 7.71998 5.45249C8.33904 4.83404 9.09926 4.52482 10.0007 4.52482C10.902 4.52482 11.6623 4.83404 12.2813 5.45249C12.8998 6.07154 13.209 6.83177 13.209 7.73315C13.209 8.63454 12.8998 9.39476 12.2813 10.0138C11.6623 10.6323 10.902 10.9415 10.0007 10.9415ZM10.0007 19.1915C8.73259 19.1915 7.54093 18.9507 6.42565 18.4692C5.31037 17.9882 4.34023 17.3352 3.51523 16.5102C2.69023 15.6852 2.03726 14.7151 1.55632 13.5998C1.07476 12.4845 0.833984 11.2929 0.833984 10.0248C0.833984 8.75676 1.07476 7.5651 1.55632 6.44982C2.03726 5.33454 2.69023 4.3644 3.51523 3.5394C4.34023 2.7144 5.31037 2.06113 6.42565 1.57957C7.54093 1.09863 8.73259 0.858154 10.0007 0.858154C11.2687 0.858154 12.4604 1.09863 13.5757 1.57957C14.6909 2.06113 15.6611 2.7144 16.4861 3.5394C17.3111 4.3644 17.964 5.33454 18.445 6.44982C18.9265 7.5651 19.1673 8.75676 19.1673 10.0248C19.1673 11.2929 18.9265 12.4845 18.445 13.5998C17.964 14.7151 17.3111 15.6852 16.4861 16.5102C15.6611 17.3352 14.6909 17.9882 13.5757 18.4692C12.4604 18.9507 11.2687 19.1915 10.0007 19.1915ZM10.0007 17.3582C10.8104 17.3582 11.5743 17.2399 12.2923 17.0034C13.0104 16.7663 13.6673 16.4262 14.2632 15.9832C13.6673 15.5401 13.0104 15.2 12.2923 14.9629C11.5743 14.7264 10.8104 14.6082 10.0007 14.6082C9.19093 14.6082 8.42704 14.7264 7.70898 14.9629C6.99093 15.2 6.33398 15.5401 5.73815 15.9832C6.33398 16.4262 6.99093 16.7663 7.70898 17.0034C8.42704 17.2399 9.19093 17.3582 10.0007 17.3582ZM10.0007 9.10815C10.3979 9.10815 10.7263 8.97829 10.9861 8.71857C11.2458 8.45885 11.3757 8.13038 11.3757 7.73315C11.3757 7.33593 11.2458 7.00746 10.9861 6.74774C10.7263 6.48802 10.3979 6.35815 10.0007 6.35815C9.60343 6.35815 9.27496 6.48802 9.01523 6.74774C8.75551 7.00746 8.62565 7.33593 8.62565 7.73315C8.62565 8.13038 8.75551 8.45885 9.01523 8.71857C9.27496 8.97829 9.60343 9.10815 10.0007 9.10815Z" fill="#D0D1D2"/>
</svg>
