<svg width="12" height="14" viewBox="0 0 12 14" fill="none" xmlns="http://www.w3.org/2000/svg">
<path d="M2.66667 8.33334V7.00001H9.33333V8.33334H2.66667ZM2.66667 11V9.66668H7.33333V11H2.66667ZM1.33333 13.6667C0.966667 13.6667 0.652667 13.5362 0.391333 13.2753C0.130444 13.014 0 12.7 0 12.3333V3.00001C0 2.63334 0.130444 2.31957 0.391333 2.05868C0.652667 1.79734 0.966667 1.66668 1.33333 1.66668H2V0.333344H3.33333V1.66668H8.66667V0.333344H10V1.66668H10.6667C11.0333 1.66668 11.3473 1.79734 11.6087 2.05868C11.8696 2.31957 12 2.63334 12 3.00001V12.3333C12 12.7 11.8696 13.014 11.6087 13.2753C11.3473 13.5362 11.0333 13.6667 10.6667 13.6667H1.33333ZM1.33333 12.3333H10.6667V5.66668H1.33333V12.3333Z" fill="#FF7C3D"/>
</svg>
