<svg width="27" height="26" viewBox="0 0 27 26" fill="none" xmlns="http://www.w3.org/2000/svg">
<path d="M8.4375 12.1892C8.4375 12.651 8.25971 13.0939 7.94324 13.4205C7.62677 13.747 7.19755 13.9305 6.75 13.9305C6.30245 13.9305 5.87322 13.747 5.55676 13.4205C5.24029 13.0939 5.0625 12.651 5.0625 12.1892C5.0625 11.7274 5.24029 11.2845 5.55676 10.9579C5.87322 10.6313 6.30245 10.4479 6.75 10.4479C7.19755 10.4479 7.62677 10.6313 7.94324 10.9579C8.25971 11.2845 8.4375 11.7274 8.4375 12.1892ZM15.1875 12.1892C15.1875 12.651 15.0097 13.0939 14.6932 13.4205C14.3768 13.747 13.9476 13.9305 13.5 13.9305C13.0524 13.9305 12.6232 13.747 12.3068 13.4205C11.9903 13.0939 11.8125 12.651 11.8125 12.1892C11.8125 11.7274 11.9903 11.2845 12.3068 10.9579C12.6232 10.6313 13.0524 10.4479 13.5 10.4479C13.9476 10.4479 14.3768 10.6313 14.6932 10.9579C15.0097 11.2845 15.1875 11.7274 15.1875 12.1892ZM20.25 13.9305C20.6976 13.9305 21.1268 13.747 21.4432 13.4205C21.7597 13.0939 21.9375 12.651 21.9375 12.1892C21.9375 11.7274 21.7597 11.2845 21.4432 10.9579C21.1268 10.6313 20.6976 10.4479 20.25 10.4479C19.8024 10.4479 19.3732 10.6313 19.0568 10.9579C18.7403 11.2845 18.5625 11.7274 18.5625 12.1892C18.5625 12.651 18.7403 13.0939 19.0568 13.4205C19.3732 13.747 19.8024 13.9305 20.25 13.9305Z" fill="white"/>
<path d="M3.65344 25.7766L3.68719 25.7697C6.77531 25.1376 8.66194 24.3035 9.53944 23.8455C10.8314 24.2011 12.1629 24.3802 13.5 24.3783C20.9554 24.3783 27 18.9211 27 12.1892C27 5.45727 20.9554 0 13.5 0C6.04462 0 0 5.45727 0 12.1892C0 15.2539 1.25381 18.0574 3.32438 20.1992C3.17952 21.575 2.88284 22.9292 2.44012 24.2356L2.43506 24.2547C2.30925 24.6289 2.17193 24.9988 2.02331 25.3639C1.89 25.6878 2.14819 26.05 2.484 25.9943C2.87493 25.9283 3.26479 25.8557 3.65344 25.7766ZM5.00344 20.3646C5.02708 20.1097 4.99593 19.8525 4.91221 19.6114C4.8285 19.3703 4.69428 19.1513 4.51912 18.9698C2.73038 17.1171 1.6875 14.7454 1.6875 12.1892C1.6875 6.63091 6.75675 1.74131 13.5 1.74131C20.2432 1.74131 25.3125 6.63091 25.3125 12.1892C25.3125 17.7492 20.2432 22.637 13.5 22.637C12.3105 22.6388 11.1259 22.4796 9.9765 22.1634C9.57484 22.0523 9.14758 22.0982 8.77669 22.2923C8.12363 22.6336 6.68419 23.2848 4.33181 23.8472C4.65999 22.7104 4.88484 21.5445 5.00344 20.3646Z" fill="white"/>
</svg>
