<svg width="19" height="19" viewBox="0 0 19 19" fill="none" xmlns="http://www.w3.org/2000/svg">
<mask id="mask0_2_1909" style="mask-type:alpha" maskUnits="userSpaceOnUse" x="0" y="0" width="19" height="19">
<rect width="19" height="19" fill="#FF7C3D"/>
</mask>
<g mask="url(#mask0_2_1909)">
<path d="M9.49998 17.4167C8.40484 17.4167 7.37567 17.2087 6.41248 16.7928C5.44929 16.3775 4.61144 15.8135 3.89894 15.101C3.18644 14.3885 2.62251 13.5507 2.20715 12.5875C1.79126 11.6243 1.58331 10.5951 1.58331 9.49999C1.58331 8.40486 1.79126 7.37569 2.20715 6.4125C2.62251 5.4493 3.18644 4.61145 3.89894 3.89895C4.61144 3.18645 5.44929 2.62226 6.41248 2.20637C7.37567 1.79101 8.40484 1.58333 9.49998 1.58333C10.5951 1.58333 11.6243 1.79101 12.5875 2.20637C13.5507 2.62226 14.3885 3.18645 15.101 3.89895C15.8135 4.61145 16.3775 5.4493 16.7928 6.4125C17.2087 7.37569 17.4166 8.40486 17.4166 9.49999C17.4166 10.5951 17.2087 11.6243 16.7928 12.5875C16.3775 13.5507 15.8135 14.3885 15.101 15.101C14.3885 15.8135 13.5507 16.3775 12.5875 16.7928C11.6243 17.2087 10.5951 17.4167 9.49998 17.4167ZM8.39165 13.1417L13.9729 7.56041L12.8646 6.45208L8.39165 10.925L6.1354 8.66874L5.02706 9.77708L8.39165 13.1417Z" fill="#1BAAE8"/>
</g>
</svg>
