<svg width="15" height="14" viewBox="0 0 15 14" fill="none" xmlns="http://www.w3.org/2000/svg">
<path d="M7.50358 13.984C6.58136 13.984 5.71469 13.8089 4.90358 13.4587C4.09247 13.1089 3.38691 12.634 2.78691 12.034C2.18691 11.434 1.71203 10.7284 1.36225 9.91733C1.01203 9.10622 0.836914 8.23955 0.836914 7.31733C0.836914 6.39511 1.01203 5.52844 1.36225 4.71733C1.71203 3.90622 2.18691 3.20067 2.78691 2.60067C3.38691 2.00067 4.09247 1.52555 4.90358 1.17533C5.71469 0.825554 6.58136 0.650665 7.50358 0.650665C8.4258 0.650665 9.29247 0.825554 10.1036 1.17533C10.9147 1.52555 11.6202 2.00067 12.2202 2.60067C12.8202 3.20067 13.2951 3.90622 13.6449 4.71733C13.9951 5.52844 14.1702 6.39511 14.1702 7.31733C14.1702 8.23955 13.9951 9.10622 13.6449 9.91733C13.2951 10.7284 12.8202 11.434 12.2202 12.034C11.6202 12.634 10.9147 13.1089 10.1036 13.4587C9.29247 13.8089 8.4258 13.984 7.50358 13.984ZM9.70358 10.4507L10.6369 9.51733L8.17025 7.05067V3.984H6.83691V7.584L9.70358 10.4507Z" fill="#FF7C3D"/>
</svg>
