<svg width="16" height="16" viewBox="0 0 16 16" fill="none" xmlns="http://www.w3.org/2000/svg">
<path d="M8 8.79168V1.29168C8 1.05557 8.08 0.85751 8.24 0.69751C8.39944 0.538066 8.59722 0.458344 8.83333 0.458344H14.6667C14.9028 0.458344 15.1006 0.538066 15.26 0.69751C15.42 0.85751 15.5 1.05557 15.5 1.29168V5.45834C15.5 5.69445 15.42 5.89223 15.26 6.05168C15.1006 6.21168 14.9028 6.29168 14.6667 6.29168H10.5L8 8.79168ZM9.66667 4.62501H13.8333V2.12501H9.66667V4.62501ZM14.625 15.5C12.8333 15.5 11.0869 15.1006 9.38583 14.3017C7.68417 13.5033 6.17722 12.4478 4.865 11.135C3.55222 9.82279 2.49667 8.31584 1.69833 6.61418C0.899445 4.91307 0.5 3.16668 0.5 1.37501C0.5 1.12501 0.583333 0.916677 0.75 0.75001C0.916667 0.583343 1.125 0.50001 1.375 0.50001H4.75C4.94444 0.50001 5.11806 0.56251 5.27083 0.68751C5.42361 0.81251 5.51389 0.972232 5.54167 1.16668L6.08333 4.08334C6.11111 4.27779 6.10778 4.45473 6.07333 4.61418C6.03833 4.77418 5.95833 4.91668 5.83333 5.04168L3.83333 7.08334C4.41667 8.08334 5.14583 9.02084 6.02083 9.89584C6.89583 10.7708 7.86111 11.5278 8.91667 12.1667L10.875 10.2083C11 10.0833 11.1633 9.98946 11.365 9.92668C11.5661 9.86446 11.7639 9.84723 11.9583 9.87501L14.8333 10.4583C15.0278 10.5 15.1875 10.5936 15.3125 10.7392C15.4375 10.8853 15.5 11.0556 15.5 11.25V14.625C15.5 14.875 15.4167 15.0833 15.25 15.25C15.0833 15.4167 14.875 15.5 14.625 15.5ZM3.04167 5.50001L4.41667 4.12501L4.04167 2.16668H2.20833C2.27778 2.73612 2.375 3.29862 2.5 3.85418C2.625 4.40973 2.80556 4.95834 3.04167 5.50001ZM13.8333 13.7917V11.9583L11.875 11.5417L10.5 12.9167C11.0417 13.1528 11.5903 13.3472 12.1458 13.5C12.7014 13.6528 13.2639 13.75 13.8333 13.7917Z" fill="#D0D1D2"/>
</svg>
