<svg width="18" height="19" viewBox="0 0 18 19" fill="none" xmlns="http://www.w3.org/2000/svg">
<path d="M0.666992 19V15.6667H17.3337V19H0.666992ZM2.33366 14V10.875L9.87533 3.33332L13.0003 6.45832L5.45866 14H2.33366ZM4.00033 12.3333H4.75033L10.667 6.45832L9.87533 5.66665L4.00033 11.5833V12.3333ZM13.9378 5.54165L10.8128 2.41665L12.3128 0.916654C12.4656 0.749987 12.66 0.669987 12.8962 0.676654C13.1323 0.683876 13.3267 0.763876 13.4795 0.916654L15.4378 2.87499C15.5906 3.02777 15.667 3.21888 15.667 3.44832C15.667 3.67721 15.5906 3.87499 15.4378 4.04165L13.9378 5.54165Z" fill="white"/>
</svg>
