<svg width="17" height="18" viewBox="0 0 17 18" fill="none" xmlns="http://www.w3.org/2000/svg">
<path d="M9.70508 8.75616H10.9551C10.9551 8.35338 10.9967 8.0581 11.0801 7.87033C11.1634 7.6831 11.3579 7.43672 11.6634 7.13116C12.0801 6.71449 12.3579 6.37755 12.4967 6.12033C12.6356 5.86366 12.7051 5.56172 12.7051 5.21449C12.7051 4.58949 12.4862 4.07921 12.0484 3.68366C11.6112 3.28755 11.0384 3.08949 10.3301 3.08949C9.76063 3.08949 9.26425 3.24921 8.84091 3.56866C8.41702 3.8881 8.12174 4.31171 7.95508 4.83949L9.08008 5.29783C9.20508 4.9506 9.37536 4.69005 9.59091 4.51616C9.80591 4.34283 10.0523 4.25616 10.3301 4.25616C10.6634 4.25616 10.9342 4.34977 11.1426 4.53699C11.3509 4.72477 11.4551 4.97838 11.4551 5.29783C11.4551 5.49227 11.3995 5.67616 11.2884 5.84949C11.1773 6.02338 10.9829 6.24227 10.7051 6.50616C10.2467 6.90894 9.96563 7.22477 9.86174 7.45366C9.7573 7.6831 9.70508 8.11727 9.70508 8.75616ZM10.3301 11.4228C10.5662 11.4228 10.7712 11.3362 10.9451 11.1628C11.1184 10.9889 11.2051 10.7839 11.2051 10.5478C11.2051 10.3117 11.1184 10.1067 10.9451 9.93283C10.7712 9.75949 10.5662 9.67283 10.3301 9.67283C10.094 9.67283 9.88924 9.75949 9.71591 9.93283C9.54202 10.1067 9.45508 10.3117 9.45508 10.5478C9.45508 10.7839 9.54202 10.9889 9.71591 11.1628C9.88924 11.3362 10.094 11.4228 10.3301 11.4228ZM5.33008 13.9228C4.87174 13.9228 4.47952 13.7598 4.15341 13.4337C3.82674 13.107 3.66341 12.7145 3.66341 12.2562V2.25616C3.66341 1.79783 3.82674 1.40533 4.15341 1.07866C4.47952 0.752548 4.87174 0.589493 5.33008 0.589493H15.3301C15.7884 0.589493 16.1809 0.752548 16.5076 1.07866C16.8337 1.40533 16.9967 1.79783 16.9967 2.25616V12.2562C16.9967 12.7145 16.8337 13.107 16.5076 13.4337C16.1809 13.7598 15.7884 13.9228 15.3301 13.9228H5.33008ZM5.33008 12.2562H15.3301V2.25616H5.33008V12.2562ZM1.99674 17.2562C1.53841 17.2562 1.14619 17.0931 0.820078 16.767C0.493412 16.4403 0.330078 16.0478 0.330078 15.5895V3.92283H1.99674V15.5895H13.6634V17.2562H1.99674Z" fill="#D0D1D2"/>
</svg>
