<svg width="36" height="36" viewBox="0 0 36 36" fill="none" xmlns="http://www.w3.org/2000/svg">
<rect x="0.5" y="0.5" width="35" height="35" rx="17.5" fill="#01050D" stroke="url(#paint0_linear_378_481)"/>
<mask id="mask0_378_481" style="mask-type:alpha" maskUnits="userSpaceOnUse" x="8" y="8" width="20" height="20">
<rect x="8" y="8" width="20" height="20" fill="#D9D9D9"/>
</mask>
<g mask="url(#mask0_378_481)">
<path d="M17.9998 25.5L16.7915 24.4166C15.3887 23.1528 14.229 22.0625 13.3123 21.1458C12.3957 20.2291 11.6665 19.4061 11.1248 18.6766C10.5832 17.9478 10.2048 17.2778 9.98984 16.6666C9.77428 16.0555 9.6665 15.4305 9.6665 14.7916C9.6665 13.4861 10.104 12.3958 10.979 11.5208C11.854 10.6458 12.9443 10.2083 14.2498 10.2083C14.9721 10.2083 15.6596 10.3611 16.3123 10.6666C16.9651 10.9722 17.5276 11.4028 17.9998 11.9583C18.4721 11.4028 19.0346 10.9722 19.6873 10.6666C20.3401 10.3611 21.0276 10.2083 21.7498 10.2083C23.0554 10.2083 24.1457 10.6458 25.0207 11.5208C25.8957 12.3958 26.3332 13.4861 26.3332 14.7916C26.3332 15.4305 26.2257 16.0555 26.0107 16.6666C25.7951 17.2778 25.4165 17.9478 24.8748 18.6766C24.3332 19.4061 23.604 20.2291 22.6873 21.1458C21.7707 22.0625 20.6109 23.1528 19.2082 24.4166L17.9998 25.5Z" fill="url(#paint1_linear_378_481)"/>
</g>
<defs>
<linearGradient id="paint0_linear_378_481" x1="2.79668e-07" y1="2.66666" x2="39.3915" y2="8.94248" gradientUnits="userSpaceOnUse">
<stop stop-color="#F6B323"/>
<stop offset="1" stop-color="#FE6915"/>
</linearGradient>
<linearGradient id="paint1_linear_378_481" x1="9.6665" y1="11.341" x2="27.8189" y2="14.4931" gradientUnits="userSpaceOnUse">
<stop stop-color="#F6B323"/>
<stop offset="1" stop-color="#FE6915"/>
</linearGradient>
</defs>
</svg>
