<svg width="20" height="18" viewBox="0 0 20 18" fill="none" xmlns="http://www.w3.org/2000/svg">
<path d="M9.9998 17.5406L8.67063 16.3411C6.27202 14.1881 4.36596 12.3157 2.95246 10.7238C1.53957 9.13242 0.83313 7.45252 0.83313 5.68403C0.83313 4.23849 1.31438 3.03131 2.27688 2.06249C3.23938 1.09366 4.43869 0.609253 5.8748 0.609253C6.68452 0.609253 7.44841 0.782103 8.16646 1.1278C8.88452 1.47412 9.49563 1.94715 9.9998 2.5469C10.504 1.94715 11.1151 1.47412 11.8331 1.1278C12.5512 0.782103 13.3151 0.609253 14.1248 0.609253C15.5609 0.609253 16.7602 1.09366 17.7227 2.06249C18.6852 3.03131 19.1665 4.23849 19.1665 5.68403C19.1665 7.45252 18.46 9.13242 17.0471 10.7238C15.6336 12.3157 13.7276 14.1881 11.329 16.3411L9.9998 17.5406ZM9.9998 15.0493C12.1845 13.0502 13.9531 11.3278 15.3055 9.88226C16.6572 8.43672 17.3331 7.03731 17.3331 5.68403C17.3331 4.76135 17.0276 3.99244 16.4165 3.37732C15.8054 2.76219 15.0415 2.45463 14.1248 2.45463C13.4067 2.45463 12.7422 2.65823 12.131 3.06545C11.5199 3.47327 11.0998 3.99244 10.8706 4.62294H9.12896C8.8998 3.99244 8.47966 3.47327 7.86855 3.06545C7.25744 2.65823 6.59285 2.45463 5.8748 2.45463C4.95813 2.45463 4.19424 2.76219 3.58313 3.37732C2.97202 3.99244 2.66646 4.76135 2.66646 5.68403C2.66646 7.03731 3.34266 8.43672 4.69505 9.88226C6.04682 11.3278 7.81507 13.0502 9.9998 15.0493Z" fill="#D0D1D2"/>
</svg>
