<svg width="17" height="9" viewBox="0 0 17 9" fill="none" xmlns="http://www.w3.org/2000/svg">
<path d="M7.81348 8.60845H4.48014C3.32737 8.60845 2.34487 8.20206 1.53264 7.38928C0.719866 6.57706 0.313477 5.59456 0.313477 4.44178C0.313477 3.289 0.719866 2.30623 1.53264 1.49345C2.34487 0.681227 3.32737 0.275116 4.48014 0.275116H7.81348V1.94178H4.48014C3.7857 1.94178 3.19542 2.18484 2.70931 2.67095C2.2232 3.15706 1.98014 3.74734 1.98014 4.44178C1.98014 5.13623 2.2232 5.7265 2.70931 6.21262C3.19542 6.69873 3.7857 6.94178 4.48014 6.94178H7.81348V8.60845ZM5.31348 5.27512V3.60845H11.9801V5.27512H5.31348ZM9.48014 8.60845V6.94178H12.8135C13.5079 6.94178 14.0982 6.69873 14.5843 6.21262C15.0704 5.7265 15.3135 5.13623 15.3135 4.44178C15.3135 3.74734 15.0704 3.15706 14.5843 2.67095C14.0982 2.18484 13.5079 1.94178 12.8135 1.94178H9.48014V0.275116H12.8135C13.9663 0.275116 14.949 0.681227 15.7618 1.49345C16.574 2.30623 16.9801 3.289 16.9801 4.44178C16.9801 5.59456 16.574 6.57706 15.7618 7.38928C14.949 8.20206 13.9663 8.60845 12.8135 8.60845H9.48014Z" fill="#D0D1D2"/>
</svg>
