<svg width="10" height="14" viewBox="0 0 10 14" fill="none" xmlns="http://www.w3.org/2000/svg">
<path d="M4.99967 11.6667C3.43301 10.5111 2.26345 9.3889 1.49101 8.30001C0.719008 7.21112 0.333008 6.14445 0.333008 5.10001C0.333008 4.31112 0.474786 3.61934 0.758341 3.02468C1.04145 2.43045 1.40523 1.93334 1.84967 1.53334C2.29412 1.13334 2.79412 0.833344 3.34967 0.633344C3.90523 0.433344 4.45523 0.333344 4.99967 0.333344C5.54412 0.333344 6.09412 0.433344 6.64967 0.633344C7.20523 0.833344 7.70523 1.13334 8.14967 1.53334C8.59412 1.93334 8.95812 2.43045 9.24167 3.02468C9.52479 3.61934 9.66634 4.31112 9.66634 5.10001C9.66634 6.14445 9.28012 7.21112 8.50767 8.30001C7.73567 9.3889 6.56634 10.5111 4.99967 11.6667ZM4.99967 6.33334C5.36634 6.33334 5.68034 6.20268 5.94167 5.94134C6.20256 5.68045 6.33301 5.36668 6.33301 5.00001C6.33301 4.63334 6.20256 4.31934 5.94167 4.05801C5.68034 3.79712 5.36634 3.66668 4.99967 3.66668C4.63301 3.66668 4.31923 3.79712 4.05834 4.05801C3.79701 4.31934 3.66634 4.63334 3.66634 5.00001C3.66634 5.36668 3.79701 5.68045 4.05834 5.94134C4.31923 6.20268 4.63301 6.33334 4.99967 6.33334ZM0.333008 13.6667V12.3333H9.66634V13.6667H0.333008Z" fill="#FF7C3D"/>
</svg>
