<svg width="428" height="95" viewBox="0 0 428 95" fill="none" xmlns="http://www.w3.org/2000/svg">
<g style="mix-blend-mode:color-burn">
<path d="M356.075 40.5642H318.643L318.569 40.5022V40.5642H230.865L212.379 59.0509H155.148L150.529 54.4323C150.856 53.8536 150.963 53.176 150.829 52.5249C150.694 51.8739 150.329 51.2934 149.8 50.8912C149.271 50.4889 148.613 50.292 147.95 50.337C147.287 50.3819 146.662 50.6657 146.192 51.1357C145.722 51.6058 145.439 52.2303 145.394 52.8935C145.349 53.5568 145.545 54.2138 145.948 54.743C146.35 55.2722 146.93 55.6377 147.582 55.7719C148.233 55.906 148.91 55.7996 149.489 55.4725L154.541 60.512H210.917L200.479 70.9503C199.898 70.6138 199.214 70.4998 198.555 70.6293C197.896 70.7589 197.306 71.1232 196.895 71.6547C196.485 72.1861 196.281 72.8486 196.321 73.5191C196.362 74.1896 196.645 74.8225 197.117 75.3004C197.589 75.7782 198.219 76.0684 198.889 76.1172C199.558 76.166 200.223 75.9699 200.76 75.5656C201.296 75.1612 201.667 74.5759 201.805 73.9184C201.942 73.2608 201.836 72.5758 201.507 71.9904L231.46 42.0377H280.073L266.935 55.1753H246.69C246.513 54.5306 246.108 53.972 245.551 53.6031C244.993 53.2342 244.321 53.0801 243.658 53.1693C242.996 53.2585 242.388 53.585 241.948 54.0883C241.508 54.5915 241.266 55.2373 241.266 55.9058C241.266 56.5743 241.508 57.2201 241.948 57.7234C242.388 58.2266 242.996 58.5531 243.658 58.6424C244.321 58.7316 244.993 58.5775 245.551 58.2086C246.108 57.8397 246.513 57.281 246.69 56.6364H267.542L282.153 42.0377H317.046L283.614 75.4698H221.913L200.603 96.7673H179.182L159.952 77.5377H130.532L120.329 67.3347H81.1016C80.9234 66.6909 80.518 66.1336 79.9603 65.766C79.4026 65.3984 78.7306 65.2454 78.0688 65.3353C77.4069 65.4252 76.8001 65.752 76.3607 66.2551C75.9213 66.7582 75.6792 67.4035 75.6792 68.0714C75.6792 68.7393 75.9213 69.3846 76.3607 69.8877C76.8001 70.3908 77.4069 70.7176 78.0688 70.8075C78.7306 70.8974 79.4026 70.7444 79.9603 70.3768C80.518 70.0092 80.9234 69.4519 81.1016 68.8082H119.747L128.489 77.55H68.9794C68.8026 76.9088 68.3993 76.3534 67.8442 75.9868C67.2891 75.6202 66.62 75.4674 65.9608 75.5566C65.3016 75.6458 64.6971 75.971 64.2594 76.4719C63.8217 76.9728 63.5805 77.6154 63.5805 78.2806C63.5805 78.9458 63.8217 79.5884 64.2594 80.0893C64.6971 80.5903 65.3016 80.9154 65.9608 81.0046C66.62 81.0938 67.2891 80.941 67.8442 80.5744C68.3993 80.2079 68.8026 79.6524 68.9794 79.0112H159.37L177.139 96.7797H28.5512C28.3744 96.1385 27.9712 95.5831 27.4161 95.2165C26.861 94.8499 26.1919 94.697 25.5327 94.7862C24.8735 94.8754 24.269 95.2007 23.8313 95.7016C23.3936 96.2025 23.1523 96.8451 23.1523 97.5103C23.1523 98.1755 23.3936 98.8181 23.8313 99.319C24.269 99.8199 24.8735 100.145 25.5327 100.234C26.1919 100.324 26.861 100.171 27.4161 99.8041C27.9712 99.4375 28.3744 98.8821 28.5512 98.2408H201.284L222.52 76.9185H284.233L303.005 58.1346H322.37L329.664 65.4278C329.327 66.0092 329.213 66.6929 329.343 67.352C329.472 68.0111 329.836 68.6009 330.368 69.0117C330.899 69.4224 331.562 69.6264 332.232 69.5856C332.903 69.5449 333.536 69.2622 334.014 68.7901C334.491 68.3179 334.782 67.6884 334.83 67.0185C334.879 66.3485 334.683 65.6837 334.279 65.1473C333.874 64.611 333.289 64.2396 332.632 64.1022C331.974 63.9647 331.289 64.0706 330.704 64.4001L322.977 56.6735H304.404L319.101 42.0377H356.669L382.598 16.0968H407.016L414.903 8.19689H479.935C480.112 8.84156 480.517 9.40017 481.074 9.76907C481.632 10.138 482.304 10.2921 482.966 10.2029C483.629 10.1136 484.237 9.78711 484.677 9.28386C485.117 8.78061 485.359 8.13481 485.359 7.46633C485.359 6.79784 485.117 6.15206 484.677 5.64881C484.237 5.14556 483.629 4.81903 482.966 4.72979C482.304 4.64056 481.632 4.7947 481.074 5.1636C480.517 5.5325 480.112 6.09111 479.935 6.73578H414.309L406.409 14.6357H382.016L356.075 40.5642Z" fill="url(#paint0_linear_2_1982)"/>
</g>
<g style="mix-blend-mode:color-burn">
<path d="M55.5812 56.6364L43.6446 68.5729H-25.1265C-25.3033 67.9316 -25.7067 67.3762 -26.2618 67.0097C-26.8168 66.6431 -27.486 66.4902 -28.1452 66.5794C-28.8044 66.6686 -29.4088 66.9938 -29.8465 67.4948C-30.2842 67.9957 -30.5254 68.6383 -30.5254 69.3035C-30.5254 69.9687 -30.2842 70.6113 -29.8465 71.1122C-29.4088 71.6131 -28.8044 71.9383 -28.1452 72.0275C-27.486 72.1167 -26.8168 71.9639 -26.2618 71.5973C-25.7067 71.2307 -25.3033 70.6753 -25.1265 70.034H44.2142L57.55 56.6983L57.4633 56.6116H119.647L145.006 31.3022H178.983L191.365 43.6845C191.043 44.2628 190.939 44.9381 191.075 45.5863C191.21 46.2346 191.575 46.8122 192.102 47.2129C192.629 47.6136 193.284 47.8105 193.944 47.7674C194.605 47.7243 195.228 47.444 195.699 46.9782C196.165 46.5075 196.445 45.8844 196.488 45.2236C196.531 44.5628 196.334 43.9086 195.934 43.3814C195.533 42.8541 194.955 42.4893 194.307 42.3539C193.659 42.2185 192.984 42.3216 192.405 42.6444L179.602 29.8535H146.48L167.071 9.2494H291.686L324.475 -23.5389H396.923V-25H323.868L291.08 7.7883H234.988L221.281 -5.94365H148.584L103.265 39.3755H87.1684L70.7618 22.9813H-34.4875L-48.8015 8.67982C-48.4697 8.09909 -48.3599 7.41768 -48.4927 6.76215C-48.6254 6.10662 -48.9914 5.52153 -49.523 5.11557C-50.0545 4.70962 -50.7154 4.51038 -51.3827 4.55488C-52.0501 4.59937 -52.6786 4.88459 -53.1515 5.35752C-53.6244 5.83046 -53.9096 6.45897 -53.9541 7.12631C-53.9986 7.79366 -53.7994 8.45446 -53.3934 8.986C-52.9875 9.51753 -52.4024 9.88367 -51.7469 10.0164C-51.0913 10.1491 -50.4099 10.0393 -49.8292 9.70755L-35.0324 24.4424H70.217L85.0758 39.3755H40.3758C40.2375 38.883 39.9645 38.4388 39.5876 38.093C39.2107 37.7472 38.7447 37.5134 38.2422 37.4179C37.7396 37.3224 37.2204 37.369 36.7429 37.5526C36.2654 37.7361 35.8487 38.0492 35.5395 38.4567C35.2302 38.8642 35.0408 39.3499 34.9925 39.8592C34.9443 40.3684 35.0391 40.8811 35.2663 41.3394C35.4935 41.7977 35.8441 42.1835 36.2787 42.4534C36.7132 42.7234 37.2144 42.8667 37.7259 42.8673C38.3266 42.8632 38.9097 42.6642 39.3875 42.3002C39.8654 41.9362 40.2122 41.4269 40.3758 40.849H103.847L149.179 -4.48255H220.724L232.97 7.76353H166.464L119.065 55.1629H-55.5993C-55.7762 54.5183 -56.1809 53.9596 -56.7384 53.5907C-57.2959 53.2218 -57.9683 53.0677 -58.6308 53.1569C-59.2933 53.2461 -59.9009 53.5727 -60.3409 54.0759C-60.7809 54.5792 -61.0234 55.225 -61.0234 55.8935C-61.0234 56.562 -60.7809 57.2077 -60.3409 57.711C-59.9009 58.2142 -59.2933 58.5407 -58.6308 58.63C-57.9683 58.7192 -57.2959 58.5651 -56.7384 58.1962C-56.1809 57.8273 -55.7762 57.2687 -55.5993 56.624L55.5812 56.6364Z" fill="url(#paint1_linear_2_1982)"/>
</g>
<g style="mix-blend-mode:color-burn">
<path d="M489.382 28.2314C488.956 27.8096 488.404 27.5379 487.81 27.4575C487.216 27.377 486.611 27.4922 486.089 27.7856L472.926 14.6357H444.014L429.155 29.4944H401.431L376.666 54.259H355.245C355.068 53.6143 354.663 53.0557 354.106 52.6868C353.548 52.3179 352.876 52.1637 352.214 52.253C351.551 52.3422 350.943 52.6688 350.503 53.172C350.063 53.6753 349.821 54.321 349.821 54.9895C349.821 55.658 350.063 56.3038 350.503 56.807C350.943 57.3103 351.551 57.6368 352.214 57.7261C352.876 57.8153 353.548 57.6612 354.106 57.2923C354.663 56.9234 355.068 56.3647 355.245 55.7201H377.298L402.062 30.9555H427.718L387.748 70.9255H346.602L329.267 88.2607H266.959L253.97 101.237H218.346L213.852 105.72C213.273 105.393 212.595 105.286 211.944 105.42C211.293 105.554 210.713 105.92 210.311 106.449C209.908 106.978 209.711 107.635 209.756 108.299C209.801 108.962 210.085 109.586 210.555 110.056C211.025 110.526 211.65 110.81 212.313 110.855C212.976 110.9 213.633 110.703 214.162 110.301C214.692 109.899 215.057 109.318 215.191 108.667C215.325 108.016 215.219 107.339 214.892 106.76L218.978 102.661H237.923L212.713 127.884H194.709L179.181 112.381H148.374C148.197 111.74 147.794 111.185 147.239 110.818C146.684 110.452 146.015 110.299 145.356 110.388C144.696 110.477 144.092 110.802 143.654 111.303C143.216 111.804 142.975 112.447 142.975 113.112C142.975 113.777 143.216 114.42 143.654 114.921C144.092 115.422 144.696 115.747 145.356 115.836C146.015 115.925 146.684 115.772 147.239 115.406C147.794 115.039 148.197 114.484 148.374 113.842H178.575L192.641 127.921H144.35L128.414 111.973H13.2587L4.5911 103.305C4.92055 102.727 5.029 102.049 4.89635 101.397C4.76369 100.744 4.39898 100.162 3.8698 99.7588C3.34064 99.3552 2.68293 99.1572 2.01889 99.2017C1.35484 99.2462 0.729492 99.5301 0.258884 100.001C-0.21172 100.471 -0.495617 101.097 -0.540096 101.761C-0.584579 102.425 -0.386589 103.082 0.0170441 103.612C0.420677 104.141 1.00258 104.506 1.65477 104.638C2.30695 104.771 2.98507 104.662 3.56335 104.333L12.7139 113.483H100.43L76.334 137.579H-31.6643L-49.7919 155.707C-50.3732 155.371 -51.057 155.256 -51.7161 155.386C-52.3752 155.516 -52.9649 155.88 -53.3757 156.411C-53.7865 156.943 -53.9905 157.605 -53.9497 158.276C-53.909 158.946 -53.6263 159.579 -53.1541 160.057C-52.682 160.535 -52.0525 160.825 -51.3826 160.874C-50.7126 160.923 -50.0478 160.727 -49.5114 160.322C-48.975 159.918 -48.6037 159.333 -48.4663 158.675C-48.3288 158.018 -48.4347 157.332 -48.7642 156.747L-31.0575 139.04H76.8665L102.411 113.434H127.844L143.793 129.382H213.27L239.954 102.698H254.565L267.529 89.7342H327.769L302.695 114.796H247.891C247.712 114.152 247.307 113.595 246.749 113.227C246.192 112.86 245.52 112.707 244.858 112.797C244.196 112.886 243.589 113.213 243.15 113.716C242.71 114.219 242.468 114.865 242.468 115.533C242.468 116.201 242.71 116.846 243.15 117.349C243.589 117.852 244.196 118.179 244.858 118.269C245.52 118.359 246.192 118.206 246.749 117.838C247.307 117.47 247.712 116.913 247.891 116.269H303.314L347.135 72.4361H388.281L444.62 16.0968H472.319L485.024 28.8257C484.772 29.2716 484.649 29.7791 484.67 30.2908C484.691 30.8026 484.855 31.2983 485.142 31.7221C485.43 32.1458 485.83 32.4808 486.298 32.6892C486.766 32.8976 487.283 32.9712 487.79 32.9016C488.298 32.832 488.776 32.6221 489.17 32.2954C489.564 31.9687 489.86 31.5383 490.023 31.0527C490.186 30.5672 490.21 30.0457 490.092 29.5472C489.975 29.0487 489.72 28.593 489.357 28.2314H489.382Z" fill="url(#paint2_linear_2_1982)"/>
</g>
<defs>
<linearGradient id="paint0_linear_2_1982" x1="23.1523" y1="11.7832" x2="348.511" y2="262.519" gradientUnits="userSpaceOnUse">
<stop stop-color="#F6B323"/>
<stop offset="1" stop-color="#FE6915"/>
</linearGradient>
<linearGradient id="paint1_linear_2_1982" x1="-61.0234" y1="-17.8109" x2="267.26" y2="228.978" gradientUnits="userSpaceOnUse">
<stop stop-color="#F6B323"/>
<stop offset="1" stop-color="#FE6915"/>
</linearGradient>
<linearGradient id="paint2_linear_2_1982" x1="-53.9548" y1="25.4687" x2="397.805" y2="293.255" gradientUnits="userSpaceOnUse">
<stop stop-color="#F6B323"/>
<stop offset="1" stop-color="#FE6915"/>
</linearGradient>
</defs>
</svg>
