<svg width="16" height="20" viewBox="0 0 16 20" fill="none" xmlns="http://www.w3.org/2000/svg">
<path d="M0.666992 16.4166V14.5833H2.50033V8.16658C2.50033 6.89853 2.88227 5.77164 3.64616 4.78592C4.41005 3.80081 5.4031 3.15547 6.62533 2.84992V2.20825C6.62533 1.82631 6.75916 1.50181 7.02682 1.23475C7.29388 0.967085 7.61838 0.833252 8.00033 0.833252C8.38227 0.833252 8.70677 0.967085 8.97383 1.23475C9.24149 1.50181 9.37533 1.82631 9.37533 2.20825V2.84992C10.5975 3.15547 11.5906 3.80081 12.3545 4.78592C13.1184 5.77164 13.5003 6.89853 13.5003 8.16658V14.5833H15.3337V16.4166H0.666992ZM8.00033 19.1666C7.49616 19.1666 7.06471 18.9872 6.70599 18.6285C6.34666 18.2692 6.16699 17.8374 6.16699 17.3333H9.83366C9.83366 17.8374 9.6543 18.2692 9.29558 18.6285C8.93624 18.9872 8.50449 19.1666 8.00033 19.1666ZM4.33366 14.5833H11.667V8.16658C11.667 7.15825 11.308 6.29506 10.5899 5.577C9.87185 4.85895 9.00866 4.49992 8.00033 4.49992C6.99199 4.49992 6.1288 4.85895 5.41074 5.577C4.69269 6.29506 4.33366 7.15825 4.33366 8.16658V14.5833Z" fill="#D0D1D2"/>
</svg>
