<svg width="19" height="18" viewBox="0 0 19 18" fill="none" xmlns="http://www.w3.org/2000/svg">
<path d="M0.666748 17.3333L4.83341 5.66667L12.3334 13.1667L0.666748 17.3333ZM3.41675 14.5833L9.29175 12.5L5.50008 8.70833L3.41675 14.5833ZM11.1251 9.45833L10.2501 8.58333L14.9167 3.91667C15.3612 3.47222 15.8959 3.25 16.5209 3.25C17.1459 3.25 17.6806 3.47222 18.1251 3.91667L18.6251 4.41667L17.7501 5.29167L17.2501 4.79167C17.0556 4.59722 16.8126 4.5 16.5209 4.5C16.2292 4.5 15.9862 4.59722 15.7917 4.79167L11.1251 9.45833ZM7.79175 6.125L6.91675 5.25L7.41675 4.75C7.61119 4.55556 7.70841 4.31944 7.70841 4.04167C7.70841 3.76389 7.61119 3.52778 7.41675 3.33333L6.87508 2.79167L7.75008 1.91667L8.29175 2.45833C8.73619 2.90278 8.95841 3.43056 8.95841 4.04167C8.95841 4.65278 8.73619 5.18056 8.29175 5.625L7.79175 6.125ZM9.45842 7.79167L8.58341 6.91667L11.5834 3.91667C11.7779 3.72222 11.8751 3.47917 11.8751 3.1875C11.8751 2.89583 11.7779 2.65278 11.5834 2.45833L10.2501 1.125L11.1251 0.25L12.4584 1.58333C12.9029 2.02778 13.1251 2.5625 13.1251 3.1875C13.1251 3.8125 12.9029 4.34722 12.4584 4.79167L9.45842 7.79167ZM12.7917 11.125L11.9167 10.25L13.2501 8.91667C13.6945 8.47222 14.2292 8.25 14.8542 8.25C15.4792 8.25 16.014 8.47222 16.4584 8.91667L17.7917 10.25L16.9167 11.125L15.5834 9.79167C15.389 9.59722 15.1459 9.5 14.8542 9.5C14.5626 9.5 14.3195 9.59722 14.1251 9.79167L12.7917 11.125Z" fill="white"/>
</svg>
