<svg width="16" height="18" viewBox="0 0 16 18" fill="none" xmlns="http://www.w3.org/2000/svg">
<path d="M7.66276 17.2561C5.7322 16.77 4.13859 15.6623 2.88193 13.9328C1.6247 12.2039 0.996094 10.2839 0.996094 8.17281V3.08948L7.66276 0.589478L14.3294 3.08948V7.81864C14.0655 7.70753 13.7947 7.6067 13.5169 7.51614C13.2391 7.42614 12.9544 7.36031 12.6628 7.31864V4.25614L7.66276 2.38114L2.66276 4.25614V8.17281C2.66276 8.82559 2.74943 9.47837 2.92276 10.1311C3.09665 10.7839 3.33998 11.4056 3.65276 11.9961C3.96498 12.5861 4.34332 13.1311 4.78776 13.6311C5.2322 14.1311 5.72526 14.5478 6.26693 14.8811C6.4197 15.3256 6.62109 15.7492 6.87109 16.152C7.12109 16.5548 7.40582 16.9159 7.72526 17.2353C7.71137 17.2353 7.70109 17.2389 7.69443 17.2461C7.6872 17.2528 7.67665 17.2561 7.66276 17.2561ZM11.8294 13.0895C12.1766 13.0895 12.4716 12.9678 12.7144 12.7245C12.9578 12.4817 13.0794 12.1867 13.0794 11.8395C13.0794 11.4923 12.9578 11.1973 12.7144 10.9545C12.4716 10.7111 12.1766 10.5895 11.8294 10.5895C11.4822 10.5895 11.1872 10.7111 10.9444 10.9545C10.7011 11.1973 10.5794 11.4923 10.5794 11.8395C10.5794 12.1867 10.7011 12.4817 10.9444 12.7245C11.1872 12.9678 11.4822 13.0895 11.8294 13.0895ZM11.8294 15.5895C12.26 15.5895 12.6558 15.4886 13.0169 15.287C13.378 15.0859 13.6697 14.8186 13.8919 14.4853C13.5864 14.3048 13.26 14.1659 12.9128 14.0686C12.5655 13.9714 12.2044 13.9228 11.8294 13.9228C11.4544 13.9228 11.0933 13.9714 10.7461 14.0686C10.3989 14.1659 10.0725 14.3048 9.76693 14.4853C9.98915 14.8186 10.2808 15.0859 10.6419 15.287C11.003 15.4886 11.3989 15.5895 11.8294 15.5895ZM11.8294 17.2561C10.6766 17.2561 9.69415 16.85 8.88193 16.0378C8.06915 15.225 7.66276 14.2423 7.66276 13.0895C7.66276 11.9367 8.06915 10.9539 8.88193 10.1411C9.69415 9.32892 10.6766 8.92281 11.8294 8.92281C12.9822 8.92281 13.965 9.32892 14.7778 10.1411C15.59 10.9539 15.9961 11.9367 15.9961 13.0895C15.9961 14.2423 15.59 15.225 14.7778 16.0378C13.965 16.85 12.9822 17.2561 11.8294 17.2561Z" fill="#D0D1D2"/>
</svg>
