<svg width="20" height="20" viewBox="0 0 20 20" fill="none" xmlns="http://www.w3.org/2000/svg">
<path d="M7.47951 19.1666L7.11284 16.2333C6.91423 16.1569 6.72723 16.0653 6.55184 15.9583C6.37584 15.8514 6.20381 15.7368 6.03576 15.6146L3.30868 16.7604L0.787842 12.4062L3.14826 10.6187C3.13298 10.5118 3.12534 10.4085 3.12534 10.3089C3.12534 10.2099 3.12534 10.1069 3.12534 9.99998C3.12534 9.89303 3.12534 9.78976 3.12534 9.69015C3.12534 9.59115 3.13298 9.48817 3.14826 9.38123L0.787842 7.59373L3.30868 3.23956L6.03576 4.3854C6.20381 4.26317 6.37951 4.14859 6.56284 4.04165C6.74618 3.9347 6.92951 3.84303 7.11284 3.76665L7.47951 0.833313H12.5212L12.8878 3.76665C13.0865 3.84303 13.2738 3.9347 13.4498 4.04165C13.6251 4.14859 13.7969 4.26317 13.9649 4.3854L16.692 3.23956L19.2128 7.59373L16.8524 9.38123C16.8677 9.48817 16.8753 9.59115 16.8753 9.69015C16.8753 9.78976 16.8753 9.89303 16.8753 9.99998C16.8753 10.1069 16.8753 10.2099 16.8753 10.3089C16.8753 10.4085 16.8601 10.5118 16.8295 10.6187L19.1899 12.4062L16.6691 16.7604L13.9649 15.6146C13.7969 15.7368 13.6212 15.8514 13.4378 15.9583C13.2545 16.0653 13.0712 16.1569 12.8878 16.2333L12.5212 19.1666H7.47951ZM10.0462 13.2083C10.9323 13.2083 11.6885 12.8951 12.3149 12.2687C12.9413 11.6423 13.2545 10.8861 13.2545 9.99998C13.2545 9.11387 12.9413 8.35762 12.3149 7.73123C11.6885 7.10484 10.9323 6.79165 10.0462 6.79165C9.14479 6.79165 8.38456 7.10484 7.76551 7.73123C7.14706 8.35762 6.83784 9.11387 6.83784 9.99998C6.83784 10.8861 7.14706 11.6423 7.76551 12.2687C8.38456 12.8951 9.14479 13.2083 10.0462 13.2083ZM10.0462 11.375C9.66423 11.375 9.33973 11.2411 9.07268 10.9735C8.80501 10.7064 8.67118 10.3819 8.67118 9.99998C8.67118 9.61803 8.80501 9.29353 9.07268 9.02648C9.33973 8.75881 9.66423 8.62498 10.0462 8.62498C10.4281 8.62498 10.7529 8.75881 11.0206 9.02648C11.2876 9.29353 11.4212 9.61803 11.4212 9.99998C11.4212 10.3819 11.2876 10.7064 11.0206 10.9735C10.7529 11.2411 10.4281 11.375 10.0462 11.375ZM9.08368 17.3333H10.8941L11.2149 14.9041C11.6885 14.7819 12.1279 14.6023 12.5331 14.3651C12.9376 14.1286 13.308 13.8423 13.6441 13.5062L15.9128 14.4458L16.8066 12.8875L14.8358 11.3979C14.9121 11.184 14.9656 10.9585 14.9962 10.7214C15.0267 10.4849 15.042 10.2444 15.042 9.99998C15.042 9.75554 15.0267 9.51476 14.9962 9.27765C14.9656 9.04115 14.9121 8.81595 14.8358 8.60206L16.8066 7.11248L15.9128 5.55415L13.6441 6.51665C13.308 6.16526 12.9376 5.87101 12.5331 5.6339C12.1279 5.3974 11.6885 5.21804 11.2149 5.09581L10.917 2.66665H9.10659L8.78576 5.09581C8.31215 5.21804 7.87306 5.3974 7.46851 5.6339C7.06334 5.87101 6.6927 6.15762 6.35659 6.49373L4.08784 5.55415L3.19409 7.11248L5.16493 8.57915C5.08854 8.80831 5.03506 9.03748 5.00451 9.26665C4.97395 9.49581 4.95868 9.74026 4.95868 9.99998C4.95868 10.2444 4.97395 10.4812 5.00451 10.7104C5.03506 10.9396 5.08854 11.1687 5.16493 11.3979L3.19409 12.8875L4.08784 14.4458L6.35659 13.4833C6.6927 13.8347 7.06334 14.1286 7.46851 14.3651C7.87306 14.6023 8.31215 14.7819 8.78576 14.9041L9.08368 17.3333Z" fill="#D0D1D2"/>
</svg>
